Coordinates
version=1
nRows=10
nColumns=40
inDegrees=yes

Units are S.I. units (second, meters, Newtons, ...)
Angles are in degrees.

endheader
time	pelvis_tilt	pelvis_list	pelvis_rotation	pelvis_tx	pelvis_ty	pelvis_tz	hip_flexion_r	hip_adduction_r	hip_rotation_r	knee_angle_r	knee_angle_r_beta	ankle_angle_r	subtalar_angle_r	mtp_angle_r	hip_flexion_l	hip_adduction_l	hip_rotation_l	knee_angle_l	knee_angle_l_beta	ankle_angle_l	subtalar_angle_l	mtp_angle_l	lumbar_extension	lumbar_bending	lumbar_rotation	arm_flex_r	arm_add_r	arm_rot_r	elbow_flex_r	pro_sup_r	wrist_flex_r	wrist_dev_r	arm_flex_l	arm_add_l	arm_rot_l	elbow_flex_l	pro_sup_l	wrist_flex_l	wrist_dev_l
     16.71250000	     -5.28512452	     -3.60071911	      8.96183562	      0.98136062	      0.91606596	      0.49723799	     -0.35592441	      2.49789748	    -18.49771706	     17.05286804	     17.05286804	     19.56318402	     -3.24973485	     -2.37550683	     29.33135955	     -3.54211985	      3.97907789	     24.18901785	     24.18901785	      2.94067731	    -12.67009937	      3.32391948	     -8.41428402	      3.16677610	      3.93025370	     50.38043672	    -18.22720885	     -9.17502063	     72.27546132	     45.15540678	      0.00000000	      0.00000000	    -13.33477146	     -9.59024517	     15.99345052	     32.04552703	     43.96064709	      0.00000000	      0.00000000
     16.73142857	     -5.31380139	     -3.57358901	      8.47532825	      0.98335796	      0.91655886	      0.49341937	     -0.87356309	      2.14974052	    -18.23577050	     17.05126070	     17.05126070	     19.34349011	     -2.82692934	     -2.36096216	     29.15651940	     -3.40808027	      3.90916567	     25.01096242	     25.01096242	      3.49261736	    -13.46687032	      3.20395734	     -8.41736372	      3.26242712	      4.17093276	     49.73682728	    -18.05292239	     -9.10643089	     71.75659422	     45.16868865	      0.00000000	      0.00000000	    -12.72923470	     -9.78617654	     15.86893126	     32.32224204	     43.99299845	      0.00000000	      0.00000000
     16.75035714	     -5.40155209	     -3.69461497	      8.02662520	      0.98516985	      0.91691948	      0.48935148	     -1.34999871	      1.85601191	    -18.48646293	     16.97190373	     16.97190373	     19.08613038	     -1.56492289	     -2.60612855	     29.09133226	     -3.28062141	      4.23348178	     25.86784551	     25.86784551	      4.26549046	    -14.63150181	      3.88138692	     -8.34080039	      3.51323568	      4.82689458	     49.27259441	    -18.55840446	     -9.42697300	     69.98770340	     45.24202167	      0.00000000	      0.00000000	    -12.05671185	    -10.03930203	     15.51938783	     33.12353830	     44.07405204	      0.00000000	      0.00000000
     16.76928571	     -5.50275303	     -3.62944843	      7.51174261	      0.98696746	      0.91727852	      0.48511946	     -1.71042500	      1.27873776	    -18.71303984	     17.13312047	     17.13312047	     18.77928866	     -0.35986392	     -3.36730027	     29.01839185	     -3.02839595	      4.18264972	     26.82870928	     26.82870928	      6.03017623	    -15.01941952	      6.81864543	     -8.26831687	      3.58985712	      4.36689433	     49.53465917	    -17.44762655	     -9.69559982	     66.74591235	     45.37425470	      0.00000000	      0.00000000	    -12.23849033	    -10.31748454	     14.55964994	     34.70736264	     44.31984817	      0.00000000	      0.00000000
     16.78821429	     -5.59826674	     -3.69545746	      6.95913195	      0.98872686	      0.91753145	      0.48090599	     -2.00939308	      0.87508483	    -18.62447136	     17.33870169	     17.33870169	     18.54707954	      0.42935690	     -3.54088541	     28.83494775	     -2.96534536	      4.01329179	     27.47792468	     27.47792468	      6.66474725	    -15.63564478	      6.95093875	     -8.25810326	      3.82592996	      4.85866028	     48.68003361	    -17.71830874	     -9.85801655	     65.38370320	     45.42465833	      0.00000000	      0.00000000	    -11.50252235	    -10.54019268	     14.22339306	     35.32155931	     44.39357217	      0.00000000	      0.00000000
     16.80714286	     -5.71682283	     -3.71302408	      6.38716940	      0.99040684	      0.91771409	      0.47659787	     -2.17850165	      0.33433057	    -18.64741449	     17.75576752	     17.75576752	     18.36163634	      1.40438999	     -3.91034812	     28.62195489	     -2.86372489	      3.74885397	     28.04606724	     28.04606724	      7.42508845	    -16.08987210	      7.33689881	     -8.20449715	      4.00743697	      5.21824531	     47.85577887	    -17.82707356	    -10.18510845	     63.45383158	     45.50044617	      0.00000000	      0.00000000	    -10.82409076	    -10.79426630	     13.84853930	     36.14058278	     44.47343840	      0.00000000	      0.00000000
     16.82607143	     -5.85774974	     -3.72274110	      5.80005655	      0.99195223	      0.91784927	      0.47226707	     -2.17837758	     -0.26989316	    -18.63003717	     18.41307209	     18.41307209	     18.11034869	      2.26990508	     -4.45515492	     28.39204826	     -2.77394928	      3.37857123	     28.52651031	     28.52651031	      8.26601952	    -16.35139271	      7.91039355	     -8.15768059	      4.19390548	      5.40584816	     47.07242441	    -17.65052350	    -10.60757328	     61.09561135	     45.59403086	      0.00000000	      0.00000000	    -10.18271440	    -11.05327418	     13.43425152	     37.10311350	     44.56105561	      0.00000000	      0.00000000
     16.84500000	     -5.94934396	     -3.73251809	      5.23773810	      0.99345885	      0.91802735	      0.46788704	     -2.18936741	     -0.85942056	    -18.49448049	     19.06947767	     19.06947767	     17.47509033	      2.75228159	     -5.88886782	     28.14516494	     -2.67084242	      3.04151052	     29.09716328	     29.09716328	      9.57460937	    -16.43755884	      9.58514439	     -8.14843307	      4.37652902	      4.65191429	     47.11587677	    -16.30086607	    -11.44512157	     56.90333590	     45.76253105	      0.00000000	      0.00000000	    -10.19667641	    -11.32606452	     12.41885478	     38.57963199	     44.78161181	      0.00000000	      0.00000000
     16.86392857	     -6.07973806	     -3.75115438	      4.62634073	      0.99481929	      0.91812554	      0.46362058	     -1.82601730	     -1.52284446	    -18.15364535	     20.34254395	     20.34254395	     17.14194641	      2.95282628	     -6.45507847	     27.81639295	     -2.64004930	      2.52211092	     29.37700649	     29.37700649	     10.18451974	    -16.55094052	      9.47210468	     -8.16830376	      4.54859875	      4.93698673	     45.59761573	    -16.49808585	    -11.58890500	     55.39520996	     45.81205705	      0.00000000	      0.00000000	     -9.19264777	    -11.56020822	     12.05064994	     39.17389136	     44.85402088	      0.00000000	      0.00000000
     16.88285714	     -6.18871215	     -3.77691014	      4.03577373	      0.99606968	      0.91828099	      0.45942337	     -1.36993875	     -2.18909437	    -17.76746100	     21.70115019	     21.70115019	     15.96629528	      2.70955640	     -9.15139525	     27.46562963	     -2.60666091	      2.03464904	     29.65343045	     29.65343045	     11.04229233	    -16.55545739	      9.98283731	     -8.14342586	      4.71085516	      4.63367459	     44.94445307	    -15.82724524	    -12.49126767	     51.40282707	     45.96922096	      0.00000000	      0.00000000	     -8.47709140	    -11.78723829	     11.23625168	     39.98006410	     45.04223359	      0.00000000	      0.00000000
